solid triangular beaker small twist
facet normal -0.381495594845246 -0.921011839060983 -0.0787293047294286
outer loop
vertex -17.5 -30.3108891324553 90.0
vertex -30.5514517446177 -17.6388888888889 5.0
vertex -9.05866657858825 -33.8074039201174 90.0
endloop
endfacet
facet normal 0.861413608902052 0.113407253067727 0.49508119470444
outer loop
vertex -30.0 5.63993296509579e-15 0.0
vertex -30.5514517446177 -17.6388888888889 5.0
vertex -28.9777747886721 -7.76457135307561 0.0
endloop
endfacet
facet normal -0.381314634736974 -0.920574962713346 0.0845037712811066
outer loop
vertex 9.05866657858821 -33.8074039201174 90.0
vertex -17.6388888888889 -30.5514517446177 5.0
vertex -9.13056075778339 -34.0757166496421 5.0
endloop
endfacet
facet normal -0.987898621166157 -0.130059320839669 0.0845037712811067
outer loop
vertex -35.2777777777778 5.63993296509579e-15 5.0
vertex -34.0757166496421 -9.13056075778336 5.0
vertex -24.7487373415292 -24.7487373415292 90.0
endloop
endfacet
facet normal -0.0740376699582497 -0.562371936081962 0.823563129902365
outer loop
vertex 15.0 25.9807621135332 0.0
vertex 9.13056075778338 34.0757166496421 5.0
vertex 0.0 35.2777777777778 5.0
endloop
endfacet
facet normal -0.606583986429182 -0.790515641873677 0.0845037712811066
outer loop
vertex -5.63993296509579e-15 -35.0 90.0
vertex -24.9451558918588 -24.9451558918587 5.0
vertex -17.6388888888889 -30.5514517446177 5.0
endloop
endfacet
facet normal 0.790515641873677 0.606583986429183 0.0845037712811066
outer loop
vertex 9.05866657858824 33.8074039201174 90.0
vertex 30.5514517446177 17.6388888888889 5.0
vertex 24.9451558918588 24.9451558918588 5.0
endloop
endfacet
facet normal 0.381314634736975 0.920574962713346 0.0845037712811069
outer loop
vertex -9.05866657858822 33.8074039201174 90.0
vertex 17.6388888888889 30.5514517446177 5.0
vertex 9.13056075778338 34.0757166496421 5.0
endloop
endfacet
facet normal 0.381314634736975 -0.920574962713346 0.0845037712811064
outer loop
vertex 30.3108891324553 -17.5 90.0
vertex 9.13056075778336 -34.0757166496421 5.0
vertex 17.6388888888889 -30.5514517446177 5.0
endloop
endfacet
facet normal 0.528920366581088 -0.689302441940946 0.495081194704441
outer loop
vertex -30.5514517446177 17.6388888888889 5.0
vertex -21.2132034355964 21.2132034355964 0.0
vertex -15.0 25.9807621135332 0.0
endloop
endfacet
facet normal 0.987898621166157 -0.13005932083967 0.0845037712811067
outer loop
vertex 30.3108891324553 17.5 90.0
vertex 34.0757166496421 -9.13056075778339 5.0
vertex 35.2777777777778 0.0 5.0
endloop
endfacet
facet normal 0.524047218001543 0.217067465020129 0.823563129902365
outer loop
vertex -30.0 5.63993296509579e-15 0.0
vertex -34.0757166496421 -9.13056075778336 5.0
vertex -30.5514517446177 -17.6388888888889 5.0
endloop
endfacet
facet normal -0.608649205795604 -0.793207088152478 0.019200510124679
outer loop
vertex -5.63993296509579e-15 -33.0 90.0
vertex -19.8775572933552 -19.8775572933552 2.0
vertex -14.0555555555556 -24.3449363508292 2.0
endloop
endfacet
facet normal 0.130502130135975 -0.991262091699731 0.0192005101246791
outer loop
vertex 23.3345237791561 -23.3345237791561 90.0
vertex 0.0 -28.1111111111111 2.0
vertex 7.27569093454863 -27.1532482279038 2.0
endloop
endfacet
facet normal -0.790890796098329 -0.606871852390413 -0.0787293047294287
outer loop
vertex -35.2777777777778 5.63993296509579e-15 5.0
vertex -24.7487373415292 -24.7487373415292 90.0
vertex -30.3108891324554 -17.5 90.0
endloop
endfacet
facet normal 0.381495594845246 0.921011839060982 -0.0787293047294285
outer loop
vertex 17.5 30.3108891324553 90.0
vertex 30.5514517446177 17.6388888888889 5.0
vertex 9.05866657858824 33.8074039201174 90.0
endloop
endfacet
facet normal -0.450009548043293 -0.345304471061833 -0.823563129902365
outer loop
vertex -24.9451558918588 -24.9451558918587 5.0
vertex -30.5514517446177 -17.6388888888889 5.0
vertex -28.9777747886721 -7.76457135307561 0.0
endloop
endfacet
facet normal 0.0740376699582499 -0.562371936081961 0.823563129902365
outer loop
vertex 7.76457135307563 28.9777747886721 0.0
vertex 0.0 35.2777777777778 5.0
vertex -9.13056075778337 34.0757166496421 5.0
endloop
endfacet
facet normal 0.790515641873678 -0.606583986429182 0.0845037712811066
outer loop
vertex 35.0 0.0 90.0
vertex 24.9451558918588 -24.9451558918588 5.0
vertex 30.5514517446177 -17.6388888888889 5.0
endloop
endfacet
facet normal 0.450009548043293 -0.345304471061833 0.823563129902365
outer loop
vertex -15.0 25.9807621135332 0.0
vertex -24.9451558918588 24.9451558918588 5.0
vertex -30.5514517446177 17.6388888888889 5.0
endloop
endfacet
facet normal -0.130121042962653 0.988367447235659 -0.0787293047294286
outer loop
vertex 0.0 35.0 90.0
vertex 17.6388888888889 30.5514517446177 5.0
vertex -9.05866657858822 33.8074039201174 90.0
endloop
endfacet
facet normal -0.790515641873678 0.606583986429182 0.0845037712811064
outer loop
vertex -24.9451558918588 24.9451558918588 5.0
vertex -30.5514517446177 17.6388888888889 5.0
vertex -35.0 5.63993296509579e-15 90.0
endloop
endfacet
facet normal -0.129621418483519 -0.984572422543447 -0.117539068557009
outer loop
vertex -8.54102848838321 -31.8755522675392 90.0
vertex -19.8775572933552 -19.8775572933552 2.0
vertex -5.63993296509579e-15 -33.0 90.0
endloop
endfacet
facet normal 0.988367447235658 -0.130121042962654 -0.0787293047294284
outer loop
vertex 35.0 0.0 90.0
vertex 33.8074039201174 -9.05866657858825 90.0
vertex 24.9451558918588 -24.9451558918588 5.0
endloop
endfacet
facet normal 0.790890796098329 -0.606871852390413 -0.0787293047294288
outer loop
vertex 30.3108891324553 -17.5 90.0
vertex 24.7487373415292 -24.7487373415292 90.0
vertex 9.13056075778336 -34.0757166496421 5.0
endloop
endfacet
facet normal 0.380030769990424 0.91747543902997 -0.117539068557009
outer loop
vertex 16.5 28.5788383248865 90.0
vertex 24.3449363508292 14.0555555555556 2.0
vertex 8.54102848838319 31.8755522675392 90.0
endloop
endfacet
facet normal -0.793207088152479 -0.608649205795602 0.0192005101246791
outer loop
vertex -24.3449363508292 -14.0555555555555 2.0
vertex -19.8775572933552 -19.8775572933552 2.0
vertex -8.54102848838321 -31.8755522675392 90.0
endloop
endfacet
facet normal -0.923709218288454 0.382612885904127 0.0192005101246789
outer loop
vertex -24.3449363508292 14.0555555555556 2.0
vertex -27.1532482279038 7.27569093454865 2.0
vertex -31.8755522675392 -8.54102848838317 90.0
endloop
endfacet
facet normal -0.130502130135976 0.991262091699731 0.0192005101246788
outer loop
vertex -23.3345237791561 23.3345237791561 90.0
vertex 5.63993296509579e-15 28.1111111111111 2.0
vertex -7.27569093454864 27.1532482279038 2.0
endloop
endfacet
facet normal -0.382612885904127 0.923709218288455 0.0192005101246788
outer loop
vertex -28.5788383248865 16.5 90.0
vertex -7.27569093454864 27.1532482279038 2.0
vertex -14.0555555555555 24.3449363508292 2.0
endloop
endfacet
facet normal -0.380030769990422 0.917475439029971 -0.117539068557009
outer loop
vertex -8.54102848838318 31.8755522675392 90.0
vertex 7.27569093454864 27.1532482279038 2.0
vertex -16.5 28.5788383248865 90.0
endloop
endfacet
facet normal -0.991262091699731 -0.130502130135975 0.0192005101246789
outer loop
vertex -28.1111111111111 5.63993296509579e-15 2.0
vertex -27.1532482279038 -7.27569093454863 2.0
vertex -23.3345237791561 -23.334523779156 90.0
endloop
endfacet
facet normal -0.528920366581088 -0.689302441940945 -0.495081194704441
outer loop
vertex -9.13056075778339 -34.0757166496421 5.0
vertex -21.2132034355964 -21.2132034355964 0.0
vertex -15.0 -25.9807621135332 0.0
endloop
endfacet
facet normal 0.606871852390412 -0.79089079609833 -0.0787293047294282
outer loop
vertex 17.5 -30.3108891324554 90.0
vertex -5.63993296509579e-15 -35.2777777777778 5.0
vertex 24.7487373415292 -24.7487373415292 90.0
endloop
endfacet
facet normal 0.920574962713346 0.381314634736973 0.084503771281107
outer loop
vertex 17.5 30.3108891324553 90.0
vertex 34.0757166496421 9.13056075778337 5.0
vertex 30.5514517446177 17.6388888888889 5.0
endloop
endfacet
facet normal -0.450009548043292 0.345304471061833 0.823563129902365
outer loop
vertex 30.5514517446177 -17.6388888888889 5.0
vertex 15.0 -25.9807621135332 0.0
vertex 24.9451558918588 -24.9451558918588 5.0
endloop
endfacet
facet normal 0.606871852390414 0.790890796098329 -0.0787293047294283
outer loop
vertex 24.7487373415292 24.7487373415292 90.0
vertex 34.0757166496421 9.13056075778337 5.0
vertex 17.5 30.3108891324553 90.0
endloop
endfacet
facet normal 0.345304471061833 -0.450009548043293 0.823563129902365
outer loop
vertex -7.76457135307562 28.9777747886721 0.0
vertex -17.6388888888889 30.5514517446177 5.0
vertex -24.9451558918588 24.9451558918588 5.0
endloop
endfacet
facet normal 0.562371936081962 0.0740376699582495 0.823563129902365
outer loop
vertex -28.9777747886721 7.76457135307563 0.0
vertex -35.2777777777778 5.63993296509579e-15 5.0
vertex -34.0757166496421 -9.13056075778336 5.0
endloop
endfacet
facet normal -0.528920366581088 0.689302441940946 0.495081194704441
outer loop
vertex 30.5514517446177 -17.6388888888889 5.0
vertex 21.2132034355964 -21.2132034355964 0.0
vertex 15.0 -25.9807621135332 0.0
endloop
endfacet
facet normal 0.923709218288454 0.382612885904127 0.019200510124679
outer loop
vertex 16.5 28.5788383248865 90.0
vertex 27.1532482279038 7.27569093454864 2.0
vertex 24.3449363508292 14.0555555555556 2.0
endloop
endfacet
facet normal 0.923709218288454 -0.382612885904128 0.019200510124679
outer loop
vertex 31.8755522675392 8.54102848838318 90.0
vertex 24.3449363508292 -14.0555555555556 2.0
vertex 27.1532482279038 -7.27569093454866 2.0
endloop
endfacet
facet normal -0.345304471061833 -0.450009548043293 0.823563129902365
outer loop
vertex 25.9807621135332 15.0 0.0
vertex 24.9451558918588 24.9451558918588 5.0
vertex 17.6388888888889 30.5514517446177 5.0
endloop
endfacet
facet normal 0.13005932083967 0.987898621166157 0.0845037712811068
outer loop
vertex -17.5 30.3108891324554 90.0
vertex 9.13056075778338 34.0757166496421 5.0
vertex 0.0 35.2777777777778 5.0
endloop
endfacet
facet normal 0.562371936081962 -0.0740376699582498 0.823563129902365
outer loop
vertex -25.9807621135332 15.0 0.0
vertex -34.0757166496421 9.13056075778338 5.0
vertex -35.2777777777778 5.63993296509579e-15 5.0
endloop
endfacet
facet normal -0.920574962713346 0.381314634736975 0.0845037712811068
outer loop
vertex -30.5514517446177 17.6388888888889 5.0
vertex -34.0757166496421 9.13056075778338 5.0
vertex -33.8074039201174 -9.05866657858821 90.0
endloop
endfacet
facet normal 0.129621418483519 0.984572422543447 -0.117539068557009
outer loop
vertex 8.54102848838319 31.8755522675392 90.0
vertex 19.8775572933552 19.8775572933552 2.0
vertex 5.63993296509579e-15 33.0 90.0
endloop
endfacet
facet normal -0.91747543902997 0.380030769990424 -0.117539068557009
outer loop
vertex -14.0555555555555 24.3449363508292 2.0
vertex -31.8755522675392 8.54102848838319 90.0
vertex -28.5788383248865 16.5 90.0
endloop
endfacet
facet normal -0.217067465020128 0.524047218001543 0.823563129902364
outer loop
vertex 17.6388888888889 -30.5514517446177 5.0
vertex -5.63993296509579e-15 -30.0 0.0
vertex 9.13056075778336 -34.0757166496421 5.0
endloop
endfacet
facet normal 0.790890796098329 0.606871852390413 -0.0787293047294287
outer loop
vertex 24.7487373415292 24.7487373415292 90.0
vertex 30.3108891324553 17.5 90.0
vertex 35.2777777777778 0.0 5.0
endloop
endfacet
facet normal -0.608649205795604 0.793207088152478 0.019200510124679
outer loop
vertex -31.8755522675392 8.54102848838319 90.0
vertex -14.0555555555555 24.3449363508292 2.0
vertex -19.8775572933552 19.8775572933552 2.0
endloop
endfacet
facet normal 0.917475439029971 0.380030769990422 -0.117539068557009
outer loop
vertex 28.5788383248865 16.5 90.0
vertex 31.8755522675392 8.54102848838318 90.0
vertex 27.1532482279038 -7.27569093454866 2.0
endloop
endfacet
facet normal 0.130059320839669 -0.987898621166157 0.0845037712811066
outer loop
vertex 24.7487373415292 -24.7487373415292 90.0
vertex -5.63993296509579e-15 -35.2777777777778 5.0
vertex 9.13056075778336 -34.0757166496421 5.0
endloop
endfacet
facet normal 0.787854020546453 -0.604541652553023 -0.117539068557009
outer loop
vertex 28.5788383248865 -16.5 90.0
vertex 23.3345237791561 -23.3345237791561 90.0
vertex 7.27569093454863 -27.1532482279038 2.0
endloop
endfacet
facet normal 0.332493242320964 0.802709695008673 0.49508119470444
outer loop
vertex -5.63993296509579e-15 -35.2777777777778 5.0
vertex -7.76457135307564 -28.977774788672 0.0
vertex -15.0 -25.9807621135332 0.0
endloop
endfacet
facet normal -0.793207088152478 0.608649205795604 0.0192005101246791
outer loop
vertex -19.8775572933552 19.8775572933552 2.0
vertex -24.3449363508292 14.0555555555556 2.0
vertex -33.0 5.63993296509579e-15 90.0
endloop
endfacet
facet normal -0.604541652553024 -0.787854020546453 -0.117539068557009
outer loop
vertex -23.3345237791561 -23.334523779156 90.0
vertex -27.1532482279038 -7.27569093454863 2.0
vertex -16.5 -28.5788383248865 90.0
endloop
endfacet
facet normal -0.604541652553023 0.787854020546453 -0.117539068557009
outer loop
vertex -16.5 28.5788383248865 90.0
vertex 5.63993296509579e-15 28.1111111111111 2.0
vertex -23.3345237791561 23.3345237791561 90.0
endloop
endfacet
facet normal -0.984572422543447 -0.129621418483517 -0.117539068557009
outer loop
vertex -24.3449363508292 14.0555555555556 2.0
vertex -31.8755522675392 -8.54102848838317 90.0
vertex -33.0 5.63993296509579e-15 90.0
endloop
endfacet
facet normal 0.0 0.0 1.0
outer loop
vertex -28.9777747886721 -7.76457135307561 0.0
vertex -28.9777747886721 7.76457135307563 0.0
vertex -30.0 5.63993296509579e-15 0.0
endloop
endfacet
facet normal 0.0 0.0 1.0
outer loop
vertex -28.9777747886721 7.76457135307563 0.0
vertex -28.9777747886721 -7.76457135307561 0.0
vertex -25.9807621135332 -15.0 0.0
endloop
endfacet
facet normal 0.0 0.0 1.0
outer loop
vertex -28.9777747886721 7.76457135307563 0.0
vertex -25.9807621135332 -15.0 0.0
vertex -25.9807621135332 15.0 0.0
endloop
endfacet
facet normal 0.0 0.0 1.0
outer loop
vertex -25.9807621135332 15.0 0.0
vertex -25.9807621135332 -15.0 0.0
vertex -21.2132034355964 -21.2132034355964 0.0
endloop
endfacet
facet normal 0.0 0.0 1.0
outer loop
vertex -25.9807621135332 15.0 0.0
vertex -21.2132034355964 -21.2132034355964 0.0
vertex -21.2132034355964 21.2132034355964 0.0
endloop
endfacet
facet normal 0.0 0.0 1.0
outer loop
vertex -21.2132034355964 21.2132034355964 0.0
vertex -21.2132034355964 -21.2132034355964 0.0
vertex -15.0 -25.9807621135332 0.0
endloop
endfacet
facet normal 0.0 0.0 1.0
outer loop
vertex -21.2132034355964 21.2132034355964 0.0
vertex -15.0 -25.9807621135332 0.0
vertex -15.0 25.9807621135332 0.0
endloop
endfacet
facet normal 0.0 0.0 1.0
outer loop
vertex -15.0 25.9807621135332 0.0
vertex -15.0 -25.9807621135332 0.0
vertex -7.76457135307564 -28.977774788672 0.0
endloop
endfacet
facet normal 0.0 0.0 1.0
outer loop
vertex -15.0 25.9807621135332 0.0
vertex -7.76457135307564 -28.977774788672 0.0
vertex -7.76457135307562 28.9777747886721 0.0
endloop
endfacet
facet normal 0.0 0.0 1.0
outer loop
vertex -7.76457135307562 28.9777747886721 0.0
vertex -7.76457135307564 -28.977774788672 0.0
vertex -5.63993296509579e-15 -30.0 0.0
endloop
endfacet
facet normal 0.0 0.0 1.0
outer loop
vertex -7.76457135307562 28.9777747886721 0.0
vertex -5.63993296509579e-15 -30.0 0.0
vertex 0.0 30.0 0.0
endloop
endfacet
facet normal 0.0 0.0 1.0
outer loop
vertex 0.0 30.0 0.0
vertex -5.63993296509579e-15 -30.0 0.0
vertex 7.76457135307561 -28.9777747886721 0.0
endloop
endfacet
facet normal 0.0 0.0 1.0
outer loop
vertex 0.0 30.0 0.0
vertex 7.76457135307561 -28.9777747886721 0.0
vertex 7.76457135307563 28.9777747886721 0.0
endloop
endfacet
facet normal 0.0 0.0 1.0
outer loop
vertex 7.76457135307563 28.9777747886721 0.0
vertex 7.76457135307561 -28.9777747886721 0.0
vertex 15.0 -25.9807621135332 0.0
endloop
endfacet
facet normal 0.0 0.0 1.0
outer loop
vertex 7.76457135307563 28.9777747886721 0.0
vertex 15.0 -25.9807621135332 0.0
vertex 15.0 25.9807621135332 0.0
endloop
endfacet
facet normal 0.0 0.0 1.0
outer loop
vertex 15.0 25.9807621135332 0.0
vertex 15.0 -25.9807621135332 0.0
vertex 21.2132034355964 -21.2132034355964 0.0
endloop
endfacet
facet normal 0.0 0.0 1.0
outer loop
vertex 15.0 25.9807621135332 0.0
vertex 21.2132034355964 -21.2132034355964 0.0
vertex 21.2132034355964 21.2132034355964 0.0
endloop
endfacet
facet normal 0.0 0.0 1.0
outer loop
vertex 21.2132034355964 21.2132034355964 0.0
vertex 21.2132034355964 -21.2132034355964 0.0
vertex 25.9807621135332 -15.0 0.0
endloop
endfacet
facet normal 0.0 0.0 1.0
outer loop
vertex 21.2132034355964 21.2132034355964 0.0
vertex 25.9807621135332 -15.0 0.0
vertex 25.9807621135332 15.0 0.0
endloop
endfacet
facet normal 0.0 0.0 1.0
outer loop
vertex 25.9807621135332 15.0 0.0
vertex 25.9807621135332 -15.0 0.0
vertex 28.977774788672 -7.76457135307565 0.0
endloop
endfacet
facet normal 0.0 0.0 1.0
outer loop
vertex 25.9807621135332 15.0 0.0
vertex 28.977774788672 -7.76457135307565 0.0
vertex 28.977774788672 7.76457135307562 0.0
endloop
endfacet
facet normal 0.0 0.0 1.0
outer loop
vertex 28.977774788672 7.76457135307562 0.0
vertex 28.977774788672 -7.76457135307565 0.0
vertex 30.0 0.0 0.0
endloop
endfacet
facet normal -0.130059320839669 0.987898621166157 0.0845037712811066
outer loop
vertex -24.7487373415292 24.7487373415292 90.0
vertex 0.0 35.2777777777778 5.0
vertex -9.13056075778337 34.0757166496421 5.0
endloop
endfacet
facet normal 0.608649205795604 -0.793207088152478 0.0192005101246786
outer loop
vertex 31.8755522675392 -8.54102848838321 90.0
vertex 14.0555555555555 -24.3449363508292 2.0
vertex 19.8775572933552 -19.8775572933552 2.0
endloop
endfacet
facet normal -0.113407253067727 -0.861413608902051 0.495081194704441
outer loop
vertex -9.13056075778337 34.0757166496421 5.0
vertex 0.0 30.0 0.0
vertex 7.76457135307563 28.9777747886721 0.0
endloop
endfacet
facet normal 0.113407253067728 0.861413608902051 0.495081194704441
outer loop
vertex 9.13056075778336 -34.0757166496421 5.0
vertex -5.63993296509579e-15 -30.0 0.0
vertex -7.76457135307564 -28.977774788672 0.0
endloop
endfacet
facet normal -0.450009548043293 -0.345304471061833 0.823563129902365
outer loop
vertex 30.5514517446177 17.6388888888889 5.0
vertex 24.9451558918588 24.9451558918588 5.0
vertex 28.977774788672 7.76457135307562 0.0
endloop
endfacet
facet normal -0.861413608902052 0.113407253067727 0.495081194704439
outer loop
vertex 34.0757166496421 9.13056075778337 5.0
vertex 30.0 0.0 0.0
vertex 28.977774788672 -7.76457135307565 0.0
endloop
endfacet
facet normal 0.130121042962653 -0.988367447235659 -0.0787293047294285
outer loop
vertex -5.63993296509579e-15 -35.0 90.0
vertex -17.6388888888889 -30.5514517446177 5.0
vertex 9.05866657858821 -33.8074039201174 90.0
endloop
endfacet
facet normal -0.217067465020128 -0.524047218001542 -0.823563129902365
outer loop
vertex -9.13056075778339 -34.0757166496421 5.0
vertex -17.6388888888889 -30.5514517446177 5.0
vertex -21.2132034355964 -21.2132034355964 0.0
endloop
endfacet
facet normal 0.793207088152478 0.608649205795604 0.0192005101246789
outer loop
vertex 8.54102848838319 31.8755522675392 90.0
vertex 24.3449363508292 14.0555555555556 2.0
vertex 19.8775572933552 19.8775572933552 2.0
endloop
endfacet
facet normal -0.917475439029971 -0.380030769990423 -0.117539068557009
outer loop
vertex -27.1532482279038 7.27569093454865 2.0
vertex -28.5788383248865 -16.5 90.0
vertex -31.8755522675392 -8.54102848838317 90.0
endloop
endfacet
facet normal -0.130121042962654 -0.988367447235658 -0.0787293047294284
outer loop
vertex -9.05866657858825 -33.8074039201174 90.0
vertex -24.9451558918588 -24.9451558918587 5.0
vertex -5.63993296509579e-15 -35.0 90.0
endloop
endfacet
facet normal 0.921011839060983 0.381495594845245 -0.0787293047294286
outer loop
vertex 30.3108891324553 17.5 90.0
vertex 33.8074039201174 9.05866657858822 90.0
vertex 34.0757166496421 -9.13056075778339 5.0
endloop
endfacet
facet normal -0.689302441940946 -0.528920366581088 0.49508119470444
outer loop
vertex 17.6388888888889 30.5514517446177 5.0
vertex 21.2132034355964 21.2132034355964 0.0
vertex 25.9807621135332 15.0 0.0
endloop
endfacet
facet normal -0.562371936081961 -0.0740376699582497 0.823563129902365
outer loop
vertex 35.2777777777778 0.0 5.0
vertex 34.0757166496421 9.13056075778337 5.0
vertex 28.977774788672 -7.76457135307565 0.0
endloop
endfacet
facet normal -0.381314634736974 0.920574962713346 0.0845037712811066
outer loop
vertex -30.3108891324553 17.5 90.0
vertex -9.13056075778337 34.0757166496421 5.0
vertex -17.6388888888889 30.5514517446177 5.0
endloop
endfacet
facet normal -0.790515641873678 -0.606583986429182 0.0845037712811066
outer loop
vertex -30.5514517446177 -17.6388888888889 5.0
vertex -24.9451558918588 -24.9451558918587 5.0
vertex -9.05866657858825 -33.8074039201174 90.0
endloop
endfacet
facet normal 0.606583986429183 -0.790515641873677 0.0845037712811065
outer loop
vertex 33.8074039201174 -9.05866657858825 90.0
vertex 17.6388888888889 -30.5514517446177 5.0
vertex 24.9451558918588 -24.9451558918588 5.0
endloop
endfacet
facet normal 0.921011839060982 -0.381495594845246 -0.0787293047294288
outer loop
vertex 33.8074039201174 -9.05866657858825 90.0
vertex 30.3108891324553 -17.5 90.0
vertex 17.6388888888889 -30.5514517446177 5.0
endloop
endfacet
facet normal -0.790890796098329 0.606871852390413 -0.0787293047294286
outer loop
vertex -9.13056075778337 34.0757166496421 5.0
vertex -30.3108891324553 17.5 90.0
vertex -24.7487373415292 24.7487373415292 90.0
endloop
endfacet
facet normal 0.920574962713346 -0.381314634736974 0.0845037712811066
outer loop
vertex 33.8074039201174 9.05866657858822 90.0
vertex 30.5514517446177 -17.6388888888889 5.0
vertex 34.0757166496421 -9.13056075778339 5.0
endloop
endfacet
facet normal 0.91747543902997 -0.380030769990424 -0.117539068557009
outer loop
vertex 31.8755522675392 -8.54102848838321 90.0
vertex 28.5788383248865 -16.5 90.0
vertex 14.0555555555555 -24.3449363508292 2.0
endloop
endfacet
facet normal -0.606583986429183 0.790515641873677 0.0845037712811068
outer loop
vertex -33.8074039201174 9.05866657858824 90.0
vertex -17.6388888888889 30.5514517446177 5.0
vertex -24.9451558918588 24.9451558918588 5.0
endloop
endfacet
facet normal 0.0 0.0 -1.0
outer loop
vertex -33.8074039201174 9.05866657858824 90.0
vertex -31.8755522675392 8.54102848838319 90.0
vertex -33.0 5.63993296509579e-15 90.0
endloop
endfacet
facet normal 0.0 0.0 -1.0
outer loop
vertex -31.8755522675392 8.54102848838319 90.0
vertex -33.8074039201174 9.05866657858824 90.0
vertex -30.3108891324553 17.5 90.0
endloop
endfacet
facet normal 0.0 0.0 -1.0
outer loop
vertex -31.8755522675392 8.54102848838319 90.0
vertex -30.3108891324553 17.5 90.0
vertex -28.5788383248865 16.5 90.0
endloop
endfacet
facet normal 0.0 0.0 -1.0
outer loop
vertex -28.5788383248865 16.5 90.0
vertex -30.3108891324553 17.5 90.0
vertex -24.7487373415292 24.7487373415292 90.0
endloop
endfacet
facet normal 0.0 0.0 -1.0
outer loop
vertex -28.5788383248865 16.5 90.0
vertex -24.7487373415292 24.7487373415292 90.0
vertex -23.3345237791561 23.3345237791561 90.0
endloop
endfacet
facet normal 0.0 0.0 -1.0
outer loop
vertex -23.3345237791561 23.3345237791561 90.0
vertex -24.7487373415292 24.7487373415292 90.0
vertex -17.5 30.3108891324554 90.0
endloop
endfacet
facet normal 0.0 0.0 -1.0
outer loop
vertex -23.3345237791561 23.3345237791561 90.0
vertex -17.5 30.3108891324554 90.0
vertex -16.5 28.5788383248865 90.0
endloop
endfacet
facet normal 0.0 0.0 -1.0
outer loop
vertex -16.5 28.5788383248865 90.0
vertex -17.5 30.3108891324554 90.0
vertex -9.05866657858822 33.8074039201174 90.0
endloop
endfacet
facet normal 0.0 0.0 -1.0
outer loop
vertex -16.5 28.5788383248865 90.0
vertex -9.05866657858822 33.8074039201174 90.0
vertex -8.54102848838318 31.8755522675392 90.0
endloop
endfacet
facet normal 0.0 0.0 -1.0
outer loop
vertex -8.54102848838318 31.8755522675392 90.0
vertex -9.05866657858822 33.8074039201174 90.0
vertex 0.0 35.0 90.0
endloop
endfacet
facet normal 0.0 0.0 -1.0
outer loop
vertex -8.54102848838318 31.8755522675392 90.0
vertex 0.0 35.0 90.0
vertex 5.63993296509579e-15 33.0 90.0
endloop
endfacet
facet normal 0.0 0.0 -1.0
outer loop
vertex 5.63993296509579e-15 33.0 90.0
vertex 0.0 35.0 90.0
vertex 9.05866657858824 33.8074039201174 90.0
endloop
endfacet
facet normal 0.0 0.0 -1.0
outer loop
vertex 5.63993296509579e-15 33.0 90.0
vertex 9.05866657858824 33.8074039201174 90.0
vertex 8.54102848838319 31.8755522675392 90.0
endloop
endfacet
facet normal 0.0 0.0 -1.0
outer loop
vertex 8.54102848838319 31.8755522675392 90.0
vertex 9.05866657858824 33.8074039201174 90.0
vertex 16.5 28.5788383248865 90.0
endloop
endfacet
facet normal 0.0 0.0 -1.0
outer loop
vertex 16.5 28.5788383248865 90.0
vertex 9.05866657858824 33.8074039201174 90.0
vertex 17.5 30.3108891324553 90.0
endloop
endfacet
facet normal 0.0 0.0 -1.0
outer loop
vertex 16.5 28.5788383248865 90.0
vertex 17.5 30.3108891324553 90.0
vertex 23.3345237791561 23.3345237791561 90.0
endloop
endfacet
facet normal 0.0 0.0 -1.0
outer loop
vertex 23.3345237791561 23.3345237791561 90.0
vertex 17.5 30.3108891324553 90.0
vertex 24.7487373415292 24.7487373415292 90.0
endloop
endfacet
facet normal 0.0 0.0 -1.0
outer loop
vertex 23.3345237791561 23.3345237791561 90.0
vertex 24.7487373415292 24.7487373415292 90.0
vertex 28.5788383248865 16.5 90.0
endloop
endfacet
facet normal 0.0 0.0 -1.0
outer loop
vertex 28.5788383248865 16.5 90.0
vertex 24.7487373415292 24.7487373415292 90.0
vertex 30.3108891324553 17.5 90.0
endloop
endfacet
facet normal 0.0 0.0 -1.0
outer loop
vertex 28.5788383248865 16.5 90.0
vertex 30.3108891324553 17.5 90.0
vertex 31.8755522675392 8.54102848838318 90.0
endloop
endfacet
facet normal 0.0 0.0 -1.0
outer loop
vertex 31.8755522675392 8.54102848838318 90.0
vertex 30.3108891324553 17.5 90.0
vertex 33.8074039201174 9.05866657858822 90.0
endloop
endfacet
facet normal 0.0 0.0 -1.0
outer loop
vertex 31.8755522675392 8.54102848838318 90.0
vertex 33.8074039201174 9.05866657858822 90.0
vertex 33.0 0.0 90.0
endloop
endfacet
facet normal 0.0 0.0 -1.0
outer loop
vertex 33.0 0.0 90.0
vertex 33.8074039201174 9.05866657858822 90.0
vertex 33.8074039201174 -9.05866657858825 90.0
endloop
endfacet
facet normal 0.0 0.0 -1.0
outer loop
vertex 33.8074039201174 -9.05866657858825 90.0
vertex 33.8074039201174 9.05866657858822 90.0
vertex 35.0 0.0 90.0
endloop
endfacet
facet normal 0.0 0.0 -1.0
outer loop
vertex -33.8074039201174 9.05866657858824 90.0
vertex -33.8074039201174 -9.05866657858821 90.0
vertex -35.0 5.63993296509579e-15 90.0
endloop
endfacet
facet normal 0.0 0.0 -1.0
outer loop
vertex -33.8074039201174 -9.05866657858821 90.0
vertex -33.8074039201174 9.05866657858824 90.0
vertex -33.0 5.63993296509579e-15 90.0
endloop
endfacet
facet normal 0.0 0.0 -1.0
outer loop
vertex -33.8074039201174 -9.05866657858821 90.0
vertex -33.0 5.63993296509579e-15 90.0
vertex -31.8755522675392 -8.54102848838317 90.0
endloop
endfacet
facet normal 0.0 0.0 -1.0
outer loop
vertex -33.8074039201174 -9.05866657858821 90.0
vertex -31.8755522675392 -8.54102848838317 90.0
vertex -30.3108891324554 -17.5 90.0
endloop
endfacet
facet normal 0.0 0.0 -1.0
outer loop
vertex -30.3108891324554 -17.5 90.0
vertex -31.8755522675392 -8.54102848838317 90.0
vertex -28.5788383248865 -16.5 90.0
endloop
endfacet
facet normal 0.0 0.0 -1.0
outer loop
vertex -30.3108891324554 -17.5 90.0
vertex -28.5788383248865 -16.5 90.0
vertex -24.7487373415292 -24.7487373415292 90.0
endloop
endfacet
facet normal 0.0 0.0 -1.0
outer loop
vertex -24.7487373415292 -24.7487373415292 90.0
vertex -28.5788383248865 -16.5 90.0
vertex -23.3345237791561 -23.334523779156 90.0
endloop
endfacet
facet normal 0.0 0.0 -1.0
outer loop
vertex -24.7487373415292 -24.7487373415292 90.0
vertex -23.3345237791561 -23.334523779156 90.0
vertex -17.5 -30.3108891324553 90.0
endloop
endfacet
facet normal 0.0 0.0 -1.0
outer loop
vertex -17.5 -30.3108891324553 90.0
vertex -23.3345237791561 -23.334523779156 90.0
vertex -16.5 -28.5788383248865 90.0
endloop
endfacet
facet normal 0.0 0.0 -1.0
outer loop
vertex -17.5 -30.3108891324553 90.0
vertex -16.5 -28.5788383248865 90.0
vertex -9.05866657858825 -33.8074039201174 90.0
endloop
endfacet
facet normal 0.0 0.0 -1.0
outer loop
vertex -9.05866657858825 -33.8074039201174 90.0
vertex -16.5 -28.5788383248865 90.0
vertex -8.54102848838321 -31.8755522675392 90.0
endloop
endfacet
facet normal 0.0 0.0 -1.0
outer loop
vertex -9.05866657858825 -33.8074039201174 90.0
vertex -8.54102848838321 -31.8755522675392 90.0
vertex -5.63993296509579e-15 -35.0 90.0
endloop
endfacet
facet normal 0.0 0.0 -1.0
outer loop
vertex -5.63993296509579e-15 -35.0 90.0
vertex -8.54102848838321 -31.8755522675392 90.0
vertex -5.63993296509579e-15 -33.0 90.0
endloop
endfacet
facet normal 0.0 0.0 -1.0
outer loop
vertex -5.63993296509579e-15 -35.0 90.0
vertex -5.63993296509579e-15 -33.0 90.0
vertex 8.54102848838317 -31.8755522675392 90.0
endloop
endfacet
facet normal 0.0 0.0 -1.0
outer loop
vertex -5.63993296509579e-15 -35.0 90.0
vertex 8.54102848838317 -31.8755522675392 90.0
vertex 9.05866657858821 -33.8074039201174 90.0
endloop
endfacet
facet normal 0.0 0.0 -1.0
outer loop
vertex 9.05866657858821 -33.8074039201174 90.0
vertex 8.54102848838317 -31.8755522675392 90.0
vertex 16.5 -28.5788383248865 90.0
endloop
endfacet
facet normal 0.0 0.0 -1.0
outer loop
vertex 9.05866657858821 -33.8074039201174 90.0
vertex 16.5 -28.5788383248865 90.0
vertex 17.5 -30.3108891324554 90.0
endloop
endfacet
facet normal 0.0 0.0 -1.0
outer loop
vertex 17.5 -30.3108891324554 90.0
vertex 16.5 -28.5788383248865 90.0
vertex 23.3345237791561 -23.3345237791561 90.0
endloop
endfacet
facet normal 0.0 0.0 -1.0
outer loop
vertex 17.5 -30.3108891324554 90.0
vertex 23.3345237791561 -23.3345237791561 90.0
vertex 24.7487373415292 -24.7487373415292 90.0
endloop
endfacet
facet normal 0.0 0.0 -1.0
outer loop
vertex 24.7487373415292 -24.7487373415292 90.0
vertex 23.3345237791561 -23.3345237791561 90.0
vertex 28.5788383248865 -16.5 90.0
endloop
endfacet
facet normal 0.0 0.0 -1.0
outer loop
vertex 24.7487373415292 -24.7487373415292 90.0
vertex 28.5788383248865 -16.5 90.0
vertex 30.3108891324553 -17.5 90.0
endloop
endfacet
facet normal 0.0 0.0 -1.0
outer loop
vertex 30.3108891324553 -17.5 90.0
vertex 28.5788383248865 -16.5 90.0
vertex 31.8755522675392 -8.54102848838321 90.0
endloop
endfacet
facet normal 0.0 0.0 -1.0
outer loop
vertex 30.3108891324553 -17.5 90.0
vertex 31.8755522675392 -8.54102848838321 90.0
vertex 33.8074039201174 -9.05866657858825 90.0
endloop
endfacet
facet normal 0.0 0.0 -1.0
outer loop
vertex 33.8074039201174 -9.05866657858825 90.0
vertex 31.8755522675392 -8.54102848838321 90.0
vertex 33.0 0.0 90.0
endloop
endfacet
facet normal 0.130502130135976 0.991262091699731 0.0192005101246789
outer loop
vertex -16.5 28.5788383248865 90.0
vertex 7.27569093454864 27.1532482279038 2.0
vertex 5.63993296509579e-15 28.1111111111111 2.0
endloop
endfacet
facet normal 0.382612885904128 -0.923709218288454 0.0192005101246786
outer loop
vertex 28.5788383248865 -16.5 90.0
vertex 7.27569093454863 -27.1532482279038 2.0
vertex 14.0555555555555 -24.3449363508292 2.0
endloop
endfacet
facet normal -0.988367447235659 -0.130121042962653 -0.0787293047294285
outer loop
vertex -30.5514517446177 17.6388888888889 5.0
vertex -33.8074039201174 -9.05866657858821 90.0
vertex -35.0 5.63993296509579e-15 90.0
endloop
endfacet
facet normal 0.524047218001542 -0.217067465020129 0.823563129902365
outer loop
vertex -21.2132034355964 21.2132034355964 0.0
vertex -30.5514517446177 17.6388888888889 5.0
vertex -34.0757166496421 9.13056075778338 5.0
endloop
endfacet
facet normal -0.787854020546452 0.604541652553024 -0.117539068557009
outer loop
vertex -7.27569093454864 27.1532482279038 2.0
vertex -28.5788383248865 16.5 90.0
vertex -23.3345237791561 23.3345237791561 90.0
endloop
endfacet
facet normal -0.861413608902051 -0.113407253067728 0.495081194704441
outer loop
vertex 30.5514517446177 17.6388888888889 5.0
vertex 28.977774788672 7.76457135307562 0.0
vertex 30.0 0.0 0.0
endloop
endfacet
facet normal 0.606583986429181 0.790515641873678 0.0845037712811062
outer loop
vertex 0.0 35.0 90.0
vertex 24.9451558918588 24.9451558918588 5.0
vertex 17.6388888888889 30.5514517446177 5.0
endloop
endfacet
facet normal 0.382612885904128 0.923709218288454 0.0192005101246792
outer loop
vertex -8.54102848838318 31.8755522675392 90.0
vertex 14.0555555555556 24.3449363508292 2.0
vertex 7.27569093454864 27.1532482279038 2.0
endloop
endfacet
facet normal 0.79320708815248 -0.608649205795602 0.0192005101246787
outer loop
vertex 33.0 0.0 90.0
vertex 19.8775572933552 -19.8775572933552 2.0
vertex 24.3449363508292 -14.0555555555556 2.0
endloop
endfacet
facet normal -0.524047218001542 0.217067465020129 0.823563129902365
outer loop
vertex 34.0757166496421 -9.13056075778339 5.0
vertex 21.2132034355964 -21.2132034355964 0.0
vertex 30.5514517446177 -17.6388888888889 5.0
endloop
endfacet
facet normal 0.99126209169973 -0.130502130135977 0.0192005101246791
outer loop
vertex 28.5788383248865 16.5 90.0
vertex 27.1532482279038 -7.27569093454866 2.0
vertex 28.1111111111111 0.0 2.0
endloop
endfacet
facet normal -0.129621418483517 0.984572422543447 -0.117539068557009
outer loop
vertex 5.63993296509579e-15 33.0 90.0
vertex 14.0555555555556 24.3449363508292 2.0
vertex -8.54102848838318 31.8755522675392 90.0
endloop
endfacet
facet normal -0.13005932083967 -0.987898621166157 0.0845037712811067
outer loop
vertex 17.5 -30.3108891324554 90.0
vertex -9.13056075778339 -34.0757166496421 5.0
vertex -5.63993296509579e-15 -35.2777777777778 5.0
endloop
endfacet
facet normal 0.608649205795603 0.793207088152479 0.0192005101246789
outer loop
vertex 5.63993296509579e-15 33.0 90.0
vertex 19.8775572933552 19.8775572933552 2.0
vertex 14.0555555555556 24.3449363508292 2.0
endloop
endfacet
facet normal 0.984572422543447 0.129621418483517 -0.117539068557009
outer loop
vertex 31.8755522675392 8.54102848838318 90.0
vertex 33.0 0.0 90.0
vertex 24.3449363508292 -14.0555555555556 2.0
endloop
endfacet
facet normal -0.787854020546453 -0.604541652553023 -0.117539068557009
outer loop
vertex -28.1111111111111 5.63993296509579e-15 2.0
vertex -23.3345237791561 -23.334523779156 90.0
vertex -28.5788383248865 -16.5 90.0
endloop
endfacet
facet normal -0.380030769990424 -0.91747543902997 -0.117539068557009
outer loop
vertex -16.5 -28.5788383248865 90.0
vertex -24.3449363508292 -14.0555555555555 2.0
vertex -8.54102848838321 -31.8755522675392 90.0
endloop
endfacet
facet normal 0.0740376699582497 0.562371936081962 0.823563129902365
outer loop
vertex -5.63993296509579e-15 -35.2777777777778 5.0
vertex -15.0 -25.9807621135332 0.0
vertex -9.13056075778339 -34.0757166496421 5.0
endloop
endfacet
facet normal -0.606871852390414 0.790890796098329 -0.0787293047294286
outer loop
vertex -17.5 30.3108891324554 90.0
vertex 0.0 35.2777777777778 5.0
vertex -24.7487373415292 24.7487373415292 90.0
endloop
endfacet
facet normal -0.984572422543447 0.129621418483518 -0.117539068557009
outer loop
vertex -19.8775572933552 19.8775572933552 2.0
vertex -33.0 5.63993296509579e-15 90.0
vertex -31.8755522675392 8.54102848838319 90.0
endloop
endfacet
facet normal -0.921011839060983 0.381495594845246 -0.0787293047294285
outer loop
vertex -17.6388888888889 30.5514517446177 5.0
vertex -33.8074039201174 9.05866657858824 90.0
vertex -30.3108891324553 17.5 90.0
endloop
endfacet
facet normal 0.0 0.0 -1.0
outer loop
vertex -27.1532482279038 7.27569093454865 2.0
vertex -27.1532482279038 -7.27569093454863 2.0
vertex -28.1111111111111 5.63993296509579e-15 2.0
endloop
endfacet
facet normal 0.0 0.0 -1.0
outer loop
vertex -27.1532482279038 -7.27569093454863 2.0
vertex -27.1532482279038 7.27569093454865 2.0
vertex -24.3449363508292 -14.0555555555555 2.0
endloop
endfacet
facet normal 0.0 0.0 -1.0
outer loop
vertex -24.3449363508292 -14.0555555555555 2.0
vertex -27.1532482279038 7.27569093454865 2.0
vertex -24.3449363508292 14.0555555555556 2.0
endloop
endfacet
facet normal 0.0 0.0 -1.0
outer loop
vertex -24.3449363508292 -14.0555555555555 2.0
vertex -24.3449363508292 14.0555555555556 2.0
vertex -19.8775572933552 -19.8775572933552 2.0
endloop
endfacet
facet normal 0.0 0.0 -1.0
outer loop
vertex -19.8775572933552 -19.8775572933552 2.0
vertex -24.3449363508292 14.0555555555556 2.0
vertex -19.8775572933552 19.8775572933552 2.0
endloop
endfacet
facet normal 0.0 0.0 -1.0
outer loop
vertex -19.8775572933552 -19.8775572933552 2.0
vertex -19.8775572933552 19.8775572933552 2.0
vertex -14.0555555555556 -24.3449363508292 2.0
endloop
endfacet
facet normal 0.0 0.0 -1.0
outer loop
vertex -14.0555555555556 -24.3449363508292 2.0
vertex -19.8775572933552 19.8775572933552 2.0
vertex -14.0555555555555 24.3449363508292 2.0
endloop
endfacet
facet normal 0.0 0.0 -1.0
outer loop
vertex -14.0555555555556 -24.3449363508292 2.0
vertex -14.0555555555555 24.3449363508292 2.0
vertex -7.27569093454865 -27.1532482279038 2.0
endloop
endfacet
facet normal 0.0 0.0 -1.0
outer loop
vertex -7.27569093454865 -27.1532482279038 2.0
vertex -14.0555555555555 24.3449363508292 2.0
vertex -7.27569093454864 27.1532482279038 2.0
endloop
endfacet
facet normal 0.0 0.0 -1.0
outer loop
vertex -7.27569093454865 -27.1532482279038 2.0
vertex -7.27569093454864 27.1532482279038 2.0
vertex 0.0 -28.1111111111111 2.0
endloop
endfacet
facet normal 0.0 0.0 -1.0
outer loop
vertex 0.0 -28.1111111111111 2.0
vertex -7.27569093454864 27.1532482279038 2.0
vertex 5.63993296509579e-15 28.1111111111111 2.0
endloop
endfacet
facet normal 0.0 0.0 -1.0
outer loop
vertex 0.0 -28.1111111111111 2.0
vertex 5.63993296509579e-15 28.1111111111111 2.0
vertex 7.27569093454863 -27.1532482279038 2.0
endloop
endfacet
facet normal 0.0 0.0 -1.0
outer loop
vertex 7.27569093454863 -27.1532482279038 2.0
vertex 5.63993296509579e-15 28.1111111111111 2.0
vertex 7.27569093454864 27.1532482279038 2.0
endloop
endfacet
facet normal 0.0 0.0 -1.0
outer loop
vertex 7.27569093454863 -27.1532482279038 2.0
vertex 7.27569093454864 27.1532482279038 2.0
vertex 14.0555555555555 -24.3449363508292 2.0
endloop
endfacet
facet normal 0.0 0.0 -1.0
outer loop
vertex 14.0555555555555 -24.3449363508292 2.0
vertex 7.27569093454864 27.1532482279038 2.0
vertex 14.0555555555556 24.3449363508292 2.0
endloop
endfacet
facet normal 0.0 0.0 -1.0
outer loop
vertex 14.0555555555555 -24.3449363508292 2.0
vertex 14.0555555555556 24.3449363508292 2.0
vertex 19.8775572933552 -19.8775572933552 2.0
endloop
endfacet
facet normal 0.0 0.0 -1.0
outer loop
vertex 19.8775572933552 -19.8775572933552 2.0
vertex 14.0555555555556 24.3449363508292 2.0
vertex 19.8775572933552 19.8775572933552 2.0
endloop
endfacet
facet normal 0.0 0.0 -1.0
outer loop
vertex 19.8775572933552 -19.8775572933552 2.0
vertex 19.8775572933552 19.8775572933552 2.0
vertex 24.3449363508292 14.0555555555556 2.0
endloop
endfacet
facet normal 0.0 0.0 -1.0
outer loop
vertex 19.8775572933552 -19.8775572933552 2.0
vertex 24.3449363508292 14.0555555555556 2.0
vertex 24.3449363508292 -14.0555555555556 2.0
endloop
endfacet
facet normal 0.0 0.0 -1.0
outer loop
vertex 24.3449363508292 -14.0555555555556 2.0
vertex 24.3449363508292 14.0555555555556 2.0
vertex 27.1532482279038 -7.27569093454866 2.0
endloop
endfacet
facet normal 0.0 0.0 -1.0
outer loop
vertex 27.1532482279038 -7.27569093454866 2.0
vertex 24.3449363508292 14.0555555555556 2.0
vertex 27.1532482279038 7.27569093454864 2.0
endloop
endfacet
facet normal 0.0 0.0 -1.0
outer loop
vertex 27.1532482279038 -7.27569093454866 2.0
vertex 27.1532482279038 7.27569093454864 2.0
vertex 28.1111111111111 0.0 2.0
endloop
endfacet
facet normal 0.129621418483517 -0.984572422543447 -0.117539068557009
outer loop
vertex -5.63993296509579e-15 -33.0 90.0
vertex -14.0555555555556 -24.3449363508292 2.0
vertex 8.54102848838317 -31.8755522675392 90.0
endloop
endfacet
facet normal -0.113407253067727 0.861413608902051 0.495081194704442
outer loop
vertex 17.6388888888889 -30.5514517446177 5.0
vertex 7.76457135307561 -28.9777747886721 0.0
vertex -5.63993296509579e-15 -30.0 0.0
endloop
endfacet
facet normal 0.606871852390414 0.790890796098329 0.0787293047294287
outer loop
vertex -17.5 -30.3108891324553 90.0
vertex -34.0757166496421 -9.13056075778336 5.0
vertex -24.7487373415292 -24.7487373415292 90.0
endloop
endfacet
facet normal -0.217067465020129 -0.524047218001542 0.823563129902365
outer loop
vertex 21.2132034355964 21.2132034355964 0.0
vertex 17.6388888888889 30.5514517446177 5.0
vertex 9.13056075778338 34.0757166496421 5.0
endloop
endfacet
facet normal 0.381495594845244 -0.921011839060983 -0.0787293047294284
outer loop
vertex 9.05866657858821 -33.8074039201174 90.0
vertex -9.13056075778339 -34.0757166496421 5.0
vertex 17.5 -30.3108891324554 90.0
endloop
endfacet
facet normal 0.787854020546453 0.604541652553023 -0.117539068557009
outer loop
vertex 23.3345237791561 23.3345237791561 90.0
vertex 28.5788383248865 16.5 90.0
vertex 28.1111111111111 0.0 2.0
endloop
endfacet
facet normal -0.987898621166157 0.130059320839669 0.0845037712811067
outer loop
vertex -34.0757166496421 9.13056075778338 5.0
vertex -35.2777777777778 5.63993296509579e-15 5.0
vertex -30.3108891324554 -17.5 90.0
endloop
endfacet
facet normal -0.689302441940945 0.528920366581087 0.495081194704442
outer loop
vertex 34.0757166496421 -9.13056075778339 5.0
vertex 25.9807621135332 -15.0 0.0
vertex 21.2132034355964 -21.2132034355964 0.0
endloop
endfacet
facet normal 0.988367447235658 0.130121042962653 -0.0787293047294287
outer loop
vertex 33.8074039201174 9.05866657858822 90.0
vertex 35.0 0.0 90.0
vertex 30.5514517446177 -17.6388888888889 5.0
endloop
endfacet
facet normal 0.991262091699731 0.130502130135976 0.0192005101246788
outer loop
vertex 23.3345237791561 23.3345237791561 90.0
vertex 28.1111111111111 0.0 2.0
vertex 27.1532482279038 7.27569093454864 2.0
endloop
endfacet
facet normal -0.524047218001543 -0.217067465020129 0.823563129902365
outer loop
vertex 34.0757166496421 9.13056075778337 5.0
vertex 30.5514517446177 17.6388888888889 5.0
vertex 30.0 0.0 0.0
endloop
endfacet
facet normal -0.802709695008673 -0.332493242320963 -0.495081194704442
outer loop
vertex -28.9777747886721 -7.76457135307561 0.0
vertex -25.9807621135332 -15.0 0.0
vertex -24.9451558918588 -24.9451558918587 5.0
endloop
endfacet
facet normal -0.130502130135977 -0.991262091699731 0.019200510124679
outer loop
vertex 16.5 -28.5788383248865 90.0
vertex -7.27569093454865 -27.1532482279038 2.0
vertex 0.0 -28.1111111111111 2.0
endloop
endfacet
facet normal 0.920574962713346 0.381314634736974 -0.0845037712811066
outer loop
vertex -34.0757166496421 -9.13056075778336 5.0
vertex -17.5 -30.3108891324553 90.0
vertex -30.5514517446177 -17.6388888888889 5.0
endloop
endfacet
facet normal -0.345304471061833 0.450009548043293 0.823563129902365
outer loop
vertex 24.9451558918588 -24.9451558918588 5.0
vertex 7.76457135307561 -28.9777747886721 0.0
vertex 17.6388888888889 -30.5514517446177 5.0
endloop
endfacet
facet normal -0.923709218288455 -0.382612885904127 0.0192005101246791
outer loop
vertex -27.1532482279038 -7.27569093454863 2.0
vertex -24.3449363508292 -14.0555555555555 2.0
vertex -16.5 -28.5788383248865 90.0
endloop
endfacet
facet normal -0.921011839060983 -0.381495594845244 -0.0787293047294283
outer loop
vertex -34.0757166496421 9.13056075778338 5.0
vertex -30.3108891324554 -17.5 90.0
vertex -33.8074039201174 -9.05866657858821 90.0
endloop
endfacet
facet normal -0.332493242320964 -0.802709695008673 0.49508119470444
outer loop
vertex 0.0 35.2777777777778 5.0
vertex 7.76457135307563 28.9777747886721 0.0
vertex 15.0 25.9807621135332 0.0
endloop
endfacet
facet normal -0.332493242320963 0.802709695008673 0.495081194704441
outer loop
vertex 24.9451558918588 -24.9451558918588 5.0
vertex 15.0 -25.9807621135332 0.0
vertex 7.76457135307561 -28.9777747886721 0.0
endloop
endfacet
facet normal -0.802709695008674 0.332493242320964 0.49508119470444
outer loop
vertex 35.2777777777778 0.0 5.0
vertex 28.977774788672 -7.76457135307565 0.0
vertex 25.9807621135332 -15.0 0.0
endloop
endfacet
facet normal 0.332493242320963 -0.802709695008674 0.49508119470444
outer loop
vertex -24.9451558918588 24.9451558918588 5.0
vertex -15.0 25.9807621135332 0.0
vertex -7.76457135307562 28.9777747886721 0.0
endloop
endfacet
facet normal 0.380030769990422 -0.917475439029971 -0.117539068557009
outer loop
vertex 8.54102848838317 -31.8755522675392 90.0
vertex -7.27569093454865 -27.1532482279038 2.0
vertex 16.5 -28.5788383248865 90.0
endloop
endfacet
facet normal -0.345304471061834 -0.450009548043293 -0.823563129902364
outer loop
vertex -17.6388888888889 -30.5514517446177 5.0
vertex -24.9451558918588 -24.9451558918587 5.0
vertex -25.9807621135332 -15.0 0.0
endloop
endfacet
facet normal 0.689302441940946 -0.528920366581089 0.49508119470444
outer loop
vertex -21.2132034355964 21.2132034355964 0.0
vertex -34.0757166496421 9.13056075778338 5.0
vertex -25.9807621135332 15.0 0.0
endloop
endfacet
facet normal -0.802709695008674 -0.332493242320963 0.49508119470444
outer loop
vertex 24.9451558918588 24.9451558918588 5.0
vertex 25.9807621135332 15.0 0.0
vertex 28.977774788672 7.76457135307562 0.0
endloop
endfacet
facet normal 0.604541652553022 -0.787854020546454 -0.117539068557009
outer loop
vertex 16.5 -28.5788383248865 90.0
vertex 0.0 -28.1111111111111 2.0
vertex 23.3345237791561 -23.3345237791561 90.0
endloop
endfacet
facet normal -0.382612885904128 -0.923709218288454 0.0192005101246791
outer loop
vertex 8.54102848838317 -31.8755522675392 90.0
vertex -14.0555555555556 -24.3449363508292 2.0
vertex -7.27569093454865 -27.1532482279038 2.0
endloop
endfacet
facet normal 0.987898621166157 0.13005932083967 0.0845037712811065
outer loop
vertex 24.7487373415292 24.7487373415292 90.0
vertex 35.2777777777778 0.0 5.0
vertex 34.0757166496421 9.13056075778337 5.0
endloop
endfacet
facet normal -0.528920366581088 -0.689302441940945 0.495081194704442
outer loop
vertex 9.13056075778338 34.0757166496421 5.0
vertex 15.0 25.9807621135332 0.0
vertex 21.2132034355964 21.2132034355964 0.0
endloop
endfacet
facet normal 0.604541652553024 0.787854020546452 -0.117539068557009
outer loop
vertex 23.3345237791561 23.3345237791561 90.0
vertex 27.1532482279038 7.27569093454864 2.0
vertex 16.5 28.5788383248865 90.0
endloop
endfacet
facet normal 0.217067465020129 -0.524047218001543 0.823563129902365
outer loop
vertex 0.0 30.0 0.0
vertex -9.13056075778337 34.0757166496421 5.0
vertex -17.6388888888889 30.5514517446177 5.0
endloop
endfacet
facet normal -0.991262091699731 0.130502130135976 0.019200510124679
outer loop
vertex -27.1532482279038 7.27569093454865 2.0
vertex -28.1111111111111 5.63993296509579e-15 2.0
vertex -28.5788383248865 -16.5 90.0
endloop
endfacet
facet normal 0.113407253067728 -0.861413608902051 0.495081194704442
outer loop
vertex -17.6388888888889 30.5514517446177 5.0
vertex -7.76457135307562 28.9777747886721 0.0
vertex 0.0 30.0 0.0
endloop
endfacet
facet normal 0.984572422543447 -0.129621418483518 -0.117539068557009
outer loop
vertex 33.0 0.0 90.0
vertex 31.8755522675392 -8.54102848838321 90.0
vertex 19.8775572933552 -19.8775572933552 2.0
endloop
endfacet
facet normal -0.0740376699582495 0.562371936081961 0.823563129902365
outer loop
vertex 9.13056075778336 -34.0757166496421 5.0
vertex -7.76457135307564 -28.977774788672 0.0
vertex -5.63993296509579e-15 -35.2777777777778 5.0
endloop
endfacet
facet normal -0.381495594845245 0.921011839060983 -0.0787293047294284
outer loop
vertex -9.05866657858822 33.8074039201174 90.0
vertex 9.13056075778338 34.0757166496421 5.0
vertex -17.5 30.3108891324554 90.0
endloop
endfacet
facet normal -0.988367447235658 0.130121042962654 -0.0787293047294284
outer loop
vertex -24.9451558918588 24.9451558918588 5.0
vertex -35.0 5.63993296509579e-15 90.0
vertex -33.8074039201174 9.05866657858824 90.0
endloop
endfacet
facet normal 0.861413608902051 -0.113407253067727 0.495081194704441
outer loop
vertex -28.9777747886721 7.76457135307563 0.0
vertex -34.0757166496421 -9.13056075778336 5.0
vertex -30.0 5.63993296509579e-15 0.0
endloop
endfacet
facet normal 0.130121042962654 0.988367447235658 -0.0787293047294284
outer loop
vertex 9.05866657858824 33.8074039201174 90.0
vertex 24.9451558918588 24.9451558918588 5.0
vertex 0.0 35.0 90.0
endloop
endfacet
facet normal -0.689302441940945 -0.528920366581088 -0.495081194704442
outer loop
vertex -25.9807621135332 -15.0 0.0
vertex -21.2132034355964 -21.2132034355964 0.0
vertex -17.6388888888889 -30.5514517446177 5.0
endloop
endfacet
facet normal -0.562371936081962 0.07403766995825 0.823563129902364
outer loop
vertex 35.2777777777778 0.0 5.0
vertex 25.9807621135332 -15.0 0.0
vertex 34.0757166496421 -9.13056075778339 5.0
endloop
endfacet
facet normal 0.802709695008674 -0.332493242320963 0.49508119470444
outer loop
vertex -25.9807621135332 15.0 0.0
vertex -35.2777777777778 5.63993296509579e-15 5.0
vertex -28.9777747886721 7.76457135307563 0.0
endloop
endfacet
endsolid triangular beaker small twist
